PathFileType	4	(X/Y/Z)	C:\Users\Biomechanik\SynologyDrive\AlexP\Athlete_03\Athlete_3_25_03_31\Squat_bar_04\marker_experimental.trc
DataRate	CameraRate	NumFrames	NumMarkers	Units	OrigDataRate	OrigDataStartFrame	OrigNumFrames
200.000000	200.000000	4	55	mm	200.000000	288	461
Frame#	Time	BL			BR			GLAB			RFHD			LFHD			C7			T6			SPINMOL			SPINM2			SPINM3			T12			BELTOL			BELT2			BELT3			SACROL			SACR2			SACR3			LTHOL			LTH2			LTH3			LSHAOL			LSHA2			LSHA3			LHEE			LTOE			LM5			RTHOL			RTH2			RTH3			RSHAOL			RSHA2			RSHA3			RHEE			RTOE			RM5			STRN			XIPH			LACR			LUAOL			LUA2			LUA3			LLAOL			LLA2			LLA3			LWRR			LWRU			RACR			RUAOL			RUA2			RUA3			RLAOL			RLA2			RLA3			RWRR			RWRU			
		X1	Y1	Z1	X2	Y2	Z2	X3	Y3	Z3	X4	Y4	Z4	X5	Y5	Z5	X6	Y6	Z6	X7	Y7	Z7	X8	Y8	Z8	X9	Y9	Z9	X10	Y10	Z10	X11	Y11	Z11	X12	Y12	Z12	X13	Y13	Z13	X14	Y14	Z14	X15	Y15	Z15	X16	Y16	Z16	X17	Y17	Z17	X18	Y18	Z18	X19	Y19	Z19	X20	Y20	Z20	X21	Y21	Z21	X22	Y22	Z22	X23	Y23	Z23	X24	Y24	Z24	X25	Y25	Z25	X26	Y26	Z26	X27	Y27	Z27	X28	Y28	Z28	X29	Y29	Z29	X30	Y30	Z30	X31	Y31	Z31	X32	Y32	Z32	X33	Y33	Z33	X34	Y34	Z34	X35	Y35	Z35	X36	Y36	Z36	X37	Y37	Z37	X38	Y38	Z38	X39	Y39	Z39	X40	Y40	Z40	X41	Y41	Z41	X42	Y42	Z42	X43	Y43	Z43	X44	Y44	Z44	X45	Y45	Z45	X46	Y46	Z46	X47	Y47	Z47	X48	Y48	Z48	X49	Y49	Z49	X50	Y50	Z50	X51	Y51	Z51	X52	Y52	Z52	X53	Y53	Z53	X54	Y54	Z54	X55	Y55	Z55	

289	1.44	219.0750274658203	775.1953735351564	-2244.831787109375	242.1555480957031	849.9622192382812	-224.9681854248046	525.7682495117188	975.7323608398439	-1196.17724609375	474.4483642578125	1002.77490234375	-1134.487915039062	484.3597717285156	999.4912719726564	-1270.260498046875	282.9178161621094	872.4331665039064	-1203.96337890625	156.4107055664062	766.3254394531251	-1211.9658203125	134.8110198974609	745.5515136718751	-1233.160522460938	125.6334609985352	739.9177856445314	-1183.782592773438	94.14615631103516	694.6829223632814	-1220.7734375	65.22522735595703	648.5986938476564	-1219.956665039062	29.2260684967041	642.7929077148439	-1234.83740234375	27.69779396057129	639.3171386718751	-1184.668334960938	-7.116359233856201	591.4194946289064	-1215.05029296875	-66.74085998535156	463.6549377441407	-1242.216796875	-67.98945617675781	461.4843139648438	-1190.239013671875	-71.55507659912109	401.2609252929688	-1218.620849609375	146.1360015869141	367.0935974121095	-1507.525146484375	199.1964569091797	317.0234680175782	-1536.2353515625	198.4150390625	367.0825805664064	-1540.810424804688	243.2486572265625	291.4719848632814	-1616.100463867188	183.2332763671875	252.196517944336	-1581.119750976562	225.2938232421875	234.1591796875001	-1601.55419921875	115.9941558837891	71.16400909423837	-1462.350830078125	317.4236450195312	48.80651473999033	-1539.322509765625	237.2050170898438	26.30043983459483	-1620.009033203125	123.8152770996094	355.8177185058594	-915.932373046875	160.7527618408203	417.4768676757813	-880.0526123046875	173.3708038330078	369.3363037109376	-880.1603393554688	214.8883819580078	305.7610473632813	-802.2432861328125	217.739990234375	226.9573974609376	-803.5279541015625	185.7283630371094	256.7075500488282	-827.2781982421875	95.63378143310547	66.21020507812506	-969.076904296875	281.3220520019531	45.99517440795904	-871.9097290039062	191.7074890136719	38.75137329101567	-799.671630859375	396.8756713867188	707.3245849609376	-1208.713500976562	350.1467590332031	568.2478027343751	-1200.3798828125	324.7521057128906	812.9503784179689	-1379.016235351562	197.9321746826172	713.7227172851564	-1471.433227539062	141.9881286621094	680.4334716796876	-1460.702514648438	171.1256866455078	660.2899169921876	-1497.454467773438	132.9730529785156	596.9510498046876	-1564.814575195312	203.4168243408203	581.0856323242189	-1598.63525390625	181.3195953369141	625.7418212890626	-1590.402587890625	248.7658843994141	696.6494140625001	-1628.754272460938	262.8114318847656	724.0415039062501	-1555.886352539062	336.7154235839844	813.2273559570314	-1042.759643554688	211.9920501708984	721.6226806640626	-953.2149658203125	177.5551910400391	672.6724853515625	-923.9867553710938	157.2444610595703	688.8016357421876	-969.5326538085938	161.8309478759766	606.2106323242188	-842.2136840820312	175.8166656494141	683.9937133789062	-831.8248291015625	206.7034454345703	644.3411865234375	-822.0870971679688	252.24951171875	725.2167358398438	-804.5588989257812	280.1080627441406	751.2675170898438	-875.195068359375	
290	1.445	219.5632781982422	777.9619750976564	-2244.78076171875	242.0723114013672	852.2672119140625	-224.9124603271484	525.8848266601562	978.1900024414064	-1196.053100585938	474.5436706542969	1005.235961914063	-1134.383544921875	484.4935913085938	1001.945861816406	-1270.152587890625	283.0590515136719	874.9176635742189	-1203.89111328125	156.5541687011719	768.7789916992189	-1211.956298828125	135.0018615722656	748.0213623046876	-1233.142700195312	125.8081970214844	742.3993530273439	-1183.769165039062	94.25775146484375	697.1931152343751	-1220.784790039062	65.38150787353516	651.0769653320314	-1219.933959960938	29.40960311889648	645.3229370117189	-1234.78955078125	27.82560920715332	641.8654785156251	-1184.625366210938	-7.119086265563965	594.0542602539064	-1215.015625	-67.23130035400391	466.9124145507813	-1242.12841796875	-68.56523132324219	464.7440795898438	-1190.129272460938	-72.3375244140625	404.5352478027344	-1218.541381835938	145.4208374023438	368.7911682128907	-1507.461059570312	198.2318420410156	318.2579345703126	-1535.874877929688	197.7445526123047	368.3194274902345	-1540.652954101562	242.7850494384766	291.7040100097657	-1615.96044921875	182.8085784912109	252.3063049316407	-1581.027099609375	224.9428100585938	234.3428497314454	-1601.44384765625	115.9178771972656	71.14099884033212	-1462.421630859375	317.3651733398438	48.8653221130372	-1539.393798828125	237.1866760253906	26.26230430603037	-1620.058227539062	123.1150817871094	357.5124816894532	-915.9931640625	160.5015716552734	418.7975158691407	-879.912109375	172.8543395996094	370.5977783203126	-880.2886352539062	214.5828704833984	305.9559326171876	-802.3817138671875	217.4544830322266	227.1510925292969	-803.5799560546875	185.4033660888672	256.8640136718751	-827.32080078125	95.50037384033203	66.19338989257818	-968.9739379882812	281.2900085449219	46.04387664794928	-871.8421630859375	191.6537170410156	38.69316101074224	-799.610107421875	396.8394470214844	709.7184448242189	-1208.630737304688	349.9838562011719	570.6182861328126	-1200.392578125	324.9476318359375	815.4289550781251	-1378.952880859375	198.0335845947266	716.3336791992189	-1471.366821289062	142.0563049316406	683.1038818359376	-1460.64404296875	171.2129058837891	662.9364624023439	-1497.397705078125	132.9779510498047	599.6553955078126	-1564.797119140625	203.4078521728516	583.7157592773439	-1598.610229492188	181.3974914550781	628.3970947265626	-1590.387329101562	248.904052734375	699.2262573242189	-1628.710083007812	262.960205078125	726.5853881835939	-1555.837890625	336.799072265625	815.5899047851564	-1042.655883789062	211.9210968017578	724.1029052734376	-953.2294311523438	177.4136505126953	675.1927490234375	-924.0136108398438	157.161376953125	691.3350219726564	-969.5770263671875	161.6110076904297	608.7224731445312	-842.2431640625	175.6937713623047	686.4813232421875	-831.8377685546875	206.5198822021484	646.8013305664062	-822.1036376953125	252.1621551513672	727.6201782226562	-804.5415649414062	280.0613708496094	753.6543579101562	-875.169189453125	
291	1.45	220.0472869873047	780.8267822265626	-2244.729248046875	241.9815826416016	854.6710815429688	-224.8567352294921	526.0066528320312	980.7429809570314	-1195.91552734375	474.6433715820312	1007.793334960938	-1134.266967773438	484.6367492675781	1004.498718261719	-1270.033203125	283.2004089355469	877.5007324218751	-1203.812377929688	156.6972351074219	771.3281860351564	-1211.94482421875	135.1921234130859	750.5860595703126	-1233.123413085938	125.9807739257812	744.9760742187501	-1183.752563476562	94.37122344970703	699.7960815429689	-1220.795654296875	65.53418731689453	653.6406250000001	-1219.911254882812	29.59222602844238	647.9402465820314	-1234.737670898438	27.94582176208496	644.4985351562501	-1184.580810546875	-7.130526542663574	596.7747802734376	-1214.984130859375	-67.72085571289062	470.2987670898438	-1242.030151367188	-69.1192626953125	468.1279602050782	-1190.015747070312	-73.12236022949219	407.9406127929688	-1218.452514648438	144.6896057128906	370.5671386718751	-1507.394165039062	197.229736328125	319.541229248047	-1535.50634765625	197.0411224365234	369.6133422851564	-1540.488647460938	242.3091583251953	291.9397888183595	-1615.813232421875	182.3731994628906	252.418426513672	-1580.927978515625	224.5827789306641	234.5296783447266	-1601.326782226562	115.8406524658203	71.12016296386727	-1462.492065429688	317.3057861328125	48.92339324951181	-1539.466186523438	237.1679229736328	26.22201919555674	-1620.110717773438	122.4017333984375	359.2851867675782	-916.0534057617188	160.2554626464844	420.1768188476563	-879.771728515625	172.3251800537109	371.9164733886719	-880.4194946289062	214.2742309570312	306.1556396484376	-802.533447265625	217.1676635742188	227.3499450683594	-803.6407470703125	185.0761871337891	257.0232543945313	-827.373046875	95.36428833007812	66.17722320556646	-968.8709716796875	281.2560119628906	46.09564971923834	-871.7710571289062	191.5999145507812	38.63526916503911	-799.5491943359375	396.8019104003906	712.2133789062501	-1208.543334960938	349.82373046875	573.0900268554689	-1200.401977539062	325.1410522460938	818.0092163085939	-1378.884643554688	198.1357116699219	719.0421142578126	-1471.296264648438	142.1260986328125	685.8704833984376	-1460.583129882812	171.3014068603516	665.6804199218751	-1497.337646484375	132.9875030517578	602.4537963867189	-1564.77490234375	203.4049072265625	586.4459838867189	-1598.586059570312	181.4813079833984	631.1500854492189	-1590.370483398438	249.0401306152344	701.9033203125001	-1628.665771484375	263.108154296875	729.2294921875001	-1555.78759765625	336.8765869140625	818.0553588867189	-1042.54736328125	211.8460998535156	726.6787109375001	-953.2396240234375	177.2677154541016	677.8082885742188	-924.0383911132812	157.0749664306641	693.9628906250001	-969.6204223632812	161.3873443603516	611.3278198242188	-842.2725830078125	175.5637359619141	689.0637817382812	-831.8519897460938	206.3325500488281	649.3546752929688	-822.1200561523438	252.0700225830078	730.1195068359375	-804.5240478515625	280.0115966796875	756.1365966796875	-875.1442260742188	
292	1.455	220.525634765625	783.7888183593751	-2244.677490234375	241.8817138671875	857.1719360351562	-224.8007507324218	526.133056640625	983.3905029296876	-1195.765014648438	474.7471008300781	1010.446044921875	-1134.13818359375	484.7879333496094	1007.149169921875	-1269.901733398438	283.3408813476562	880.1817016601564	-1203.727294921875	156.8390197753906	773.9725952148439	-1211.931274414062	135.3804016113281	753.2452392578126	-1233.1025390625	126.1500473022461	747.6478271484376	-1183.732788085938	94.48622894287109	702.4911499023439	-1220.80517578125	65.68138885498047	656.2890625000001	-1219.88916015625	29.7711353302002	650.6443481445314	-1234.682250976562	28.05741119384766	647.2152709960939	-1184.535522460938	-7.1510329246521	599.5796508789064	-1214.95654296875	-68.20587921142578	473.8120422363282	-1241.924072265625	-69.64705657958984	471.6336669921876	-1189.900634765625	-73.90507507324219	411.4752197265626	-1218.355712890625	143.9446716308594	372.4192810058595	-1507.323974609375	196.1916961669922	320.8741760253907	-1535.131469726562	196.3068542480469	370.964813232422	-1540.317749023438	241.8233337402344	292.1788330078126	-1615.658935546875	181.9299621582031	252.5324859619141	-1580.82275390625	224.2155609130859	234.7196502685548	-1601.203125	115.7630310058594	71.10130310058602	-1462.562622070312	317.2457885742188	48.98072433471689	-1539.539794921875	237.1488952636719	26.1797981262208	-1620.165771484375	121.6786499023438	361.1356506347657	-916.1135864257812	160.0160217285156	421.6138610839844	-879.6319580078125	171.7853088378906	373.2915954589844	-880.5533447265625	213.962646484375	306.3605346679688	-802.6988525390625	216.8798675537109	227.5542602539063	-803.710693359375	184.7472839355469	257.1855163574219	-827.4356079101562	95.22639465332031	66.16161346435553	-968.7682495117188	281.2202758789062	46.15052032470709	-871.6962280273438	191.5462646484375	38.57804107666021	-799.48876953125	396.7628479003906	714.8090209960939	-1208.45166015625	349.6664428710938	575.6624755859376	-1200.407836914062	325.3308715820312	820.6903686523439	-1378.811889648438	198.2376708984375	721.8464355468751	-1471.221801757812	142.1965637207031	688.7301635742189	-1460.52099609375	171.3905944824219	668.5194702148439	-1497.274658203125	133.0025024414062	605.3430786132814	-1564.748657226562	203.4093627929688	589.2747192382814	-1598.563598632812	181.5702819824219	633.9989013671876	-1590.35205078125	249.1736450195312	704.6795654296876	-1628.621459960938	263.2550354003906	731.9731445312501	-1555.735473632812	336.9469604492188	820.6232299804689	-1042.434692382812	211.7671203613281	729.3488159179689	-953.2454833984375	177.1183624267578	680.517578125	-924.0606689453125	156.9852752685547	696.6833496093751	-969.6620483398438	161.1611480712891	614.0249633789062	-842.3015747070312	175.4272613525391	691.7391357421875	-831.8671264648438	206.1425628662109	652.0000610351562	-822.1361694335938	251.972900390625	732.7138061523438	-804.5062866210938	279.958251953125	758.7135009765625	-875.1198120117188	
